HIERARCHY
ROOT Hips
{
	OFFSET 0.00000 0.00000 0.00000
	CHANNELS 6 Xposition Yposition Zposition Zrotation Yrotation Xrotation 
	JOINT LHipJoint
	{
		OFFSET 0 0 0
		CHANNELS 3 Zrotation Yrotation Xrotation
		JOINT LeftHip
		{
			OFFSET 1.57338 -1.94743 0.52196
			CHANNELS 3 Zrotation Yrotation Xrotation
			JOINT LeftKnee
			{
				OFFSET 2.60333 -7.15259 0.00000
				CHANNELS 3 Zrotation Yrotation Xrotation
				JOINT LeftAnkle
				{
					OFFSET 2.77855 -7.63400 0.00000
					CHANNELS 3 Zrotation Yrotation Xrotation
					JOINT LeftToe
					{
						OFFSET 0.19847 -0.54529 2.28466
						CHANNELS 3 Zrotation Yrotation Xrotation
						End Site
						{
							OFFSET 0.00000 -0.00000 1.17993
						}
					}
				}
			}
		}
	}
	JOINT RHipJoint
	{
		OFFSET 0 0 0
		CHANNELS 3 Zrotation Yrotation Xrotation
		JOINT RightHip
		{
			OFFSET -1.61527 -1.94743 0.52196
			CHANNELS 3 Zrotation Yrotation Xrotation
			JOINT RightKnee
			{
				OFFSET -2.53829 -6.97390 0.00000
				CHANNELS 3 Zrotation Yrotation Xrotation
				JOINT RightAnkle
				{
					OFFSET -2.80762 -7.71387 0.00000
					CHANNELS 3 Zrotation Yrotation Xrotation
					JOINT RightToe
					{
						OFFSET -0.30536 -0.83898 2.28801
						CHANNELS 3 Zrotation Yrotation Xrotation
						End Site
						{
							OFFSET -0.00000 -0.00000 1.21323
						}
					}
				}
			}
		}
	}
	JOINT lowerback
	{
		OFFSET 0 0 0
		CHANNELS 3 Zrotation Yrotation Xrotation
		JOINT Chest
		{
			OFFSET -0.04381 1.99497 -0.19778
			CHANNELS 3 Zrotation Yrotation Xrotation
			JOINT Chest2
			{
				OFFSET -0.01959 2.01295 -0.04372
				CHANNELS 3 Zrotation Yrotation Xrotation
				JOINT lowerneck
				{
					OFFSET 0 0 0
					CHANNELS 3 Zrotation Yrotation Xrotation
					JOINT Neck
					{
						OFFSET -0.05459 1.76913 0.09708
						CHANNELS 3 Zrotation Yrotation Xrotation
						JOINT Head
						{
							OFFSET 0.09461 1.77368 -0.11172
							CHANNELS 3 Zrotation Yrotation Xrotation
							End Site
							{
								OFFSET 0.03812 1.78157 -0.04834
							}
						}
					}
				}
				JOINT LeftCollar
				{
					OFFSET 0 0 0
					CHANNELS 3 Zrotation Yrotation Xrotation
					JOINT LeftShoulder
					{
						OFFSET 3.50922 1.24034 -0.28866
CHANNELS 3 Zrotation Xrotation Yrotation
						JOINT LeftElbow
						{
OFFSET 0 -5.401880 0.000000
CHANNELS 3 Zrotation Xrotation Yrotation
							JOINT LeftWrist
							{
OFFSET 0 -3.685590 0.000000
CHANNELS 3 Zrotation Xrotation Yrotation
								JOINT lhand
								{
									OFFSET 0 0 0
CHANNELS 3 Zrotation Xrotation Yrotation
									JOINT LFingers
									{
OFFSET 0 -0.617530 0.000000
CHANNELS 3 Zrotation Xrotation Yrotation
										End Site
										{
OFFSET 0 -0.497870 0.000000
										}
									}
								}
								JOINT LThumb
								{
OFFSET 0 0.000000 0.000000
CHANNELS 3 Zrotation Xrotation Yrotation
									End Site
									{
OFFSET 0 -0.505470 0.505470
									}
								}
							}
						}
					}
				}
				JOINT RightCollar
				{
					OFFSET 0 0 0
					CHANNELS 3 Zrotation Yrotation Xrotation
					JOINT RightShoulder
					{
						OFFSET -2.95373 1.39649 -0.27346
CHANNELS 3 Zrotation Xrotation Yrotation
						JOINT RightElbow
						{
OFFSET 0 -6.106700 -0.000000
CHANNELS 3 Zrotation Xrotation Yrotation
							JOINT RightWrist
							{
OFFSET 0 -3.630520 0.000000
CHANNELS 3 Zrotation Xrotation Yrotation
								JOINT rhand
								{
									OFFSET 0 0 0
CHANNELS 3 Zrotation Xrotation Yrotation
									JOINT RFingers
									{
OFFSET 0 -0.583850 0.000000
CHANNELS 3 Zrotation Xrotation Yrotation
										End Site
										{
OFFSET 0 -0.470710 0.000000
										}
									}
								}
								JOINT RThumb
								{
OFFSET 0 0.000000 0.000000
CHANNELS 3 Zrotation Xrotation Yrotation
									End Site
									{
OFFSET 0 -0.477900 0.477900
									}
								}
							}
						}
					}
				}
			}
		}
	}
}
MOTION
Frames: 9
Frame Time: 0.008333333333333333
7.635500 18.743600 8.052900 170.196000 -85.920100 -163.969000 0.000000 0.000000 0.000000 -23.571300 -5.623800 -13.362500 1.776700 8.384600 23.888400 1.365900 21.907800 -38.651100 0.627600 5.069200 14.106100 0.000000 0.000000 0.000000 10.463500 34.051600 -15.911900 -3.641700 -11.667700 34.566200 -0.542600 7.023600 -13.277100 -0.499100 4.529000 -12.569800 -11.061800 -1.299000 9.509600 -1.890600 -3.015100 1.823200 4.570400 -1.460500 -2.961600 -8.641300 -7.160900 -7.956300 12.441200 -11.777900 20.049200 4.365300 -5.330700 8.806900 0.000000 0.000000 0.000000 4.640400 -5.767900 -12.724100 10.150600 -16.974700 1.518600 21.971800 7.287400 -24.206500 0.000000 0.000000 0.000000 -7.125000 0.000000 0.000000 -8.013800 55.662900 2.106800 0.000000 0.000000 0.000000 -8.842000 3.102000 11.832200 -27.233700 -38.401100 -9.643900 -21.941200 16.356200 -2.384100 0.000000 0.000000 0.000000 7.125000 0.000000 -0.000000 3.570800 27.404800 1.529300
7.599468 18.749420 8.034571 169.514007 -85.926836 -163.344119 0.000000 0.000000 0.000000 -23.582108 -5.591567 -12.984834 1.730446 8.280444 23.569211 1.230570 22.284118 -38.376597 0.549733 4.748902 13.193979 0.000000 0.000000 0.000000 10.059613 34.153102 -15.912410 -3.463534 -11.409942 33.675513 -0.717403 3.097461 -15.275600 -0.441517 4.257489 -11.803145 -10.772812 -1.546784 9.693600 -1.894958 -3.334430 1.884788 4.445393 -1.622864 -2.965358 -8.787140 -7.197846 -8.000737 12.611908 -11.784081 19.694440 4.442410 -5.331263 8.715973 0.000000 0.000000 0.000000 4.549340 -6.433073 -12.295543 9.887187 -16.562874 1.442657 22.153673 7.980850 -24.346291 0.000000 0.000000 0.000000 -7.125000 0.000000 0.000000 -7.879904 55.844596 2.106034 0.000000 0.000000 0.000000 -9.347778 3.210875 10.245075 -27.861140 -38.987999 -10.036309 -22.202914 16.203706 -0.409796 0.000000 0.000000 0.000000 7.125000 0.000000 0.000000 3.423183 29.529513 1.294214
7.566427 18.766604 8.020067 167.707818 -85.627691 -161.586880 0.000000 0.000000 0.000000 -23.806143 -4.831646 -12.761292 1.646493 8.087232 22.979449 1.153584 22.350109 -38.063032 0.522241 4.631105 12.859398 0.000000 0.000000 0.000000 9.523678 33.658802 -16.283272 -3.311718 -11.183218 32.900359 -0.757018 -0.821789 -16.772131 -0.238544 3.135697 -8.657315 -10.596617 -1.582917 9.943134 -1.958065 -3.402479 1.889273 4.301177 -1.652068 -3.103699 -8.745023 -7.328580 -7.895538 12.614544 -11.905249 19.231767 4.419988 -5.393628 8.553130 0.000000 0.000000 0.000000 4.462454 -7.081845 -12.563160 9.627723 -16.155107 1.369574 21.960877 8.306301 -24.394966 0.000000 0.000000 0.000000 -7.125000 0.000000 0.000000 -8.103328 55.854919 2.168339 0.000000 0.000000 0.000000 -9.850615 3.285330 8.179742 -28.099031 -39.207227 -10.186240 -22.978453 16.642965 0.276822 0.000000 0.000000 0.000000 7.125000 0.000000 0.000000 2.835670 30.274207 1.020751
7.523464 18.784053 7.994932 168.695953 -85.195811 -162.673688 0.000000 0.000000 0.000000 -23.811610 -4.070899 -12.355093 1.549901 7.857840 22.283138 0.981068 22.724944 -37.600894 0.462957 4.363859 12.102731 0.000000 0.000000 0.000000 9.402748 32.839250 -16.751143 -3.164877 -10.957233 32.135903 -0.654857 -5.039730 -17.952262 -0.087689 1.906631 -5.247675 -10.519132 -1.607632 10.182888 -1.832953 -3.452418 1.871816 4.407667 -1.668083 -3.244426 -8.895015 -7.430496 -8.079975 12.598099 -12.010162 19.252810 4.419233 -5.444712 8.615946 0.000000 0.000000 0.000000 4.080100 -7.598645 -12.022365 9.477995 -15.918920 1.328211 21.988912 8.856133 -24.249301 0.000000 0.000000 0.000000 -7.125000 0.000000 0.000000 -8.013489 55.710635 2.115957 0.000000 0.000000 0.000000 -10.692860 3.165102 6.011981 -28.309601 -39.399691 -10.319652 -24.668823 16.873829 2.458082 0.000000 0.000000 0.000000 7.125000 0.000000 0.000000 1.558011 32.681972 0.470999
7.472873 18.804373 7.978240 170.448250 -84.633390 -164.448972 0.000000 0.000000 0.000000 -23.791526 -3.505812 -11.921027 1.460119 7.636907 21.616602 0.899919 23.001204 -37.495277 0.425085 4.184375 11.595897 0.000000 0.000000 0.000000 9.429717 31.621925 -17.461524 -3.013724 -10.717132 31.331781 -0.464497 -8.533027 -18.723674 -0.005467 0.154525 -0.424589 -10.286312 -1.663795 10.177806 -1.627660 -3.484622 1.910286 4.496688 -1.687611 -3.196271 -9.053879 -7.419817 -8.183332 12.472303 -11.890506 19.045490 4.412491 -5.403208 8.552328 0.000000 0.000000 0.000000 3.594911 -8.222795 -11.682142 9.341397 -15.702776 1.290933 22.076589 9.272399 -24.359027 0.000000 0.000000 0.000000 -7.125000 0.000000 0.000000 -7.966271 55.841926 2.128365 0.000000 0.000000 0.000000 -11.796320 2.895443 4.279842 -28.476405 -39.551123 -10.425622 -25.938344 16.370183 2.716556 0.000000 0.000000 0.000000 7.125000 0.000000 0.000000 0.536176 32.999388 0.157030
7.419417 18.815025 7.954303 171.971654 -83.963204 -165.970409 0.000000 0.000000 0.000000 -23.776751 -3.260431 -11.322330 1.362761 7.388620 20.872061 0.848243 23.490614 -37.788275 0.420938 4.164153 11.539067 0.000000 0.000000 0.000000 9.676058 30.048095 -18.288880 -2.873138 -10.486715 30.567737 -0.194513 -11.483411 -18.831379 -0.007746 -0.567071 1.558381 -9.937674 -1.635222 10.149330 -1.564305 -3.401739 1.895632 4.360169 -1.646589 -3.224829 -8.898673 -7.529387 -8.405452 12.229672 -12.019949 19.187248 4.280076 -5.460696 8.631617 0.000000 0.000000 0.000000 3.426873 -8.639885 -12.305052 9.326914 -15.679788 1.287031 22.555886 8.980301 -24.206074 0.000000 0.000000 0.000000 -7.125000 0.000000 0.000000 -7.399091 55.782853 1.965853 0.000000 0.000000 0.000000 -12.516418 2.600460 2.143356 -28.511027 -39.582442 -10.447759 -28.312487 15.868500 1.988839 0.000000 0.000000 0.000000 7.125000 0.000000 0.000000 -1.394533 32.235183 -0.438462
7.360009 18.825998 7.928205 170.066200 -83.173204 -164.097224 0.000000 0.000000 0.000000 -24.167396 -2.879351 -10.773348 1.279321 7.167988 20.213951 0.902303 23.647691 -38.238801 0.356156 3.833923 10.609887 0.000000 0.000000 0.000000 9.489051 28.413743 -19.085113 -2.704268 -10.199966 29.627004 0.091903 -13.843474 -18.575968 -0.040553 -1.297467 3.567827 -9.965685 -1.612016 10.132819 -1.559532 -3.373612 1.885626 4.377140 -1.632356 -3.228486 -9.046990 -7.516857 -8.593458 12.248375 -11.950813 19.103053 4.312617 -5.427669 8.640502 0.000000 0.000000 0.000000 3.111859 -8.967865 -12.374591 9.453379 -15.879942 1.321508 22.019391 8.965962 -24.382737 0.000000 0.000000 0.000000 -7.125000 0.000000 0.000000 -8.036984 55.854453 2.150667 0.000000 0.000000 0.000000 -13.366952 2.202620 -0.158077 -28.600663 -39.663322 -10.504841 -31.862539 14.304838 -0.375967 0.000000 0.000000 0.000000 7.125000 0.000000 0.000000 -4.153112 29.523269 -1.574198
7.286604 18.838621 7.896753 173.942182 -82.403364 -167.795895 0.000000 0.000000 0.000000 -23.776565 -2.913468 -10.254405 1.209299 6.976065 19.644558 0.975825 24.173066 -39.189966 0.379142 3.953365 10.945646 0.000000 0.000000 0.000000 10.228683 26.954715 -19.802935 -2.522865 -9.879057 28.586259 0.415043 -16.076016 -18.085744 -0.048032 -1.386192 3.812541 -9.229617 -1.605065 9.834516 -1.406928 -3.240709 1.807584 4.102005 -1.568103 -3.196259 -8.886927 -7.560437 -8.435669 12.082656 -11.973888 18.844222 4.230379 -5.450870 8.505922 0.000000 0.000000 0.000000 3.100994 -8.894342 -14.232899 9.848641 -16.502405 1.431677 22.457245 7.626785 -25.145562 0.000000 0.000000 0.000000 -7.125000 0.000000 0.000000 -7.896389 56.732279 2.281269 0.000000 0.000000 0.000000 -14.126496 1.858485 -2.465522 -28.939071 -39.966251 -10.721677 -34.852605 12.500441 -2.181646 0.000000 0.000000 0.000000 7.125000 0.000000 0.000000 -6.336316 27.303905 -2.743504
7.209043 18.832779 7.858948 168.914888 -81.478539 -163.181644 0.000000 0.000000 0.000000 -24.721663 -1.843519 -9.584969 1.148241 6.804087 19.136179 0.856877 24.436258 -38.914741 0.321080 3.640676 10.067983 0.000000 0.000000 0.000000 9.799316 25.880034 -19.730002 -2.369565 -9.596696 27.680342 0.568631 -17.436997 -18.606885 -0.082918 -1.857677 5.112587 -9.879034 -1.574833 10.072768 -1.386624 -3.301850 1.807337 4.502210 -1.590174 -3.282446 -9.215568 -7.509230 -8.597590 12.007204 -11.829423 18.936844 4.272206 -5.401224 8.565151 0.000000 0.000000 0.000000 2.650705 -8.825611 -14.735798 10.152624 -16.977990 1.519201 11.127386 1.347568 -20.308824 0.000000 0.000000 0.000000 -7.125000 0.000000 0.000000 -17.100894 49.878168 2.039314 0.000000 0.000000 0.000000 -15.127271 1.395880 -4.804591 -29.567287 -40.519439 -11.127452 -39.594078 11.331065 -2.830838 0.000000 0.000000 0.000000 7.125000 0.000000 0.000000 -9.842475 26.281291 -4.533606
